<?xml version="1.0" standalone="no"?>
<!DOCTYPE svg PUBLIC "-//W3C//DTD SVG 20010904//EN"
 "http://www.w3.org/TR/2001/REC-SVG-20010904/DTD/svg10.dtd">
<svg version="1.0" xmlns="http://www.w3.org/2000/svg"
 width="988.000000pt" height="549.000000pt" viewBox="0 0 988.000000 549.000000"
 preserveAspectRatio="xMidYMid meet">
<metadata>
Created by potrace 1.15, written by Peter Selinger 2001-2017
</metadata>
<g transform="translate(0.000000,549.000000) scale(0.100000,-0.100000)"
fill="#000000" stroke="none">
<path d="M0 2745 l0 -2745 4940 0 4940 0 0 162 c0 89 -3 158 -7 155 -3 -4 -7
-74 -7 -155 l-1 -147 -4914 -3 c-3610 -1 -4918 1 -4927 9 -12 9 -13 461 -11
2733 l2 2721 4916 2 c4112 3 4918 1 4928 -11 8 -9 12 -608 14 -2207 l2 -2194
3 2213 2 2212 -4940 0 -4940 0 0 -2745z"/>
<path d="M5455 5419 c-22 -4 -1247 -8 -2722 -8 -2378 -1 -2683 -3 -2683 -16 0
-13 158 -15 1364 -15 750 0 1378 -3 1395 -6 l32 -7 -1 -266 c-1 -146 -4 -278
-7 -293 l-5 -28 -392 -2 -391 -3 -3 -127 -3 -128 -248 0 c-137 0 -261 -3 -277
-6 l-29 -5 3 -1167 2 -1166 -58 -95 c-33 -53 -184 -298 -337 -546 -153 -247
-296 -478 -317 -512 l-38 -63 -1 -137 c0 -76 -4 -178 -8 -228 -5 -49 -4 -151
1 -225 5 -74 6 -154 3 -177 l-6 -43 -340 0 c-332 0 -339 0 -339 -20 0 -19 7
-20 108 -20 59 0 222 0 362 -1 140 0 2187 0 4548 0 l4292 1 0 105 c0 58 1 106
3 107 1 1 112 5 247 8 l245 6 -247 2 c-152 1 -248 6 -248 12 0 5 51 11 118 13
l117 3 -117 2 -118 2 0 32 0 31 262 -7 c160 -4 259 -3 253 3 -6 5 -113 11
-240 14 -126 3 -240 9 -252 12 l-23 7 0 286 0 285 260 -8 c166 -4 260 -3 260
3 0 6 -94 12 -232 16 -280 8 -308 11 -308 36 0 10 -7 21 -16 24 -24 9 -27 7
-14 -10 11 -12 10 -18 -3 -31 -15 -16 -16 144 -14 2175 l2 2192 -1900 -1
c-1045 -1 -1918 -5 -1940 -10z m-1107 -46 l472 -6 0 -696 0 -696 -618 0 -617
0 -3 23 c-4 30 -36 25 -40 -6 -3 -22 -5 -22 -173 -22 -165 0 -169 0 -169 -21
0 -21 3 -21 148 -19 195 3 192 4 192 -20 0 -13 7 -20 20 -20 13 0 20 7 20 19
0 15 10 21 42 26 23 4 302 4 620 0 l578 -7 0 -457 c0 -251 1 -652 3 -891 2
-396 0 -438 -15 -462 -9 -14 -55 -47 -102 -72 l-84 -46 -103 0 c-91 0 -108 -3
-156 -27 -76 -39 -125 -94 -147 -168 -37 -123 -39 -127 -132 -198 -104 -80
-328 -193 -412 -208 -31 -6 -115 -9 -187 -7 -119 4 -137 7 -210 37 -44 19 -93
40 -110 48 -39 20 -215 152 -215 163 0 4 -18 28 -41 54 l-41 46 4 1145 c2 629
7 1148 12 1152 4 4 25 -2 46 -15 45 -26 60 -28 60 -8 0 8 -25 28 -55 45 -30
17 -55 36 -55 41 0 12 27 0 72 -31 14 -11 34 -19 43 -19 16 0 16 2 2 24 -9 13
-13 33 -10 44 4 16 -8 28 -56 61 l-61 42 0 574 0 574 28 4 c47 7 954 7 1450 0z
m1090 -7 c3 -4 5 -404 3 -533 l-1 -43 -195 0 -196 0 3 -342 c2 -271 6 -349 17
-370 l14 -28 178 0 c169 0 178 -1 184 -20 3 -11 3 -29 0 -40 -6 -20 -13 -20
-293 -18 l-287 3 -3 697 -2 697 77 4 c87 5 495 -1 501 -7z m3720 7 l82 -6 0
-29 0 -29 -152 2 c-139 1 -153 -1 -160 -18 -4 -10 -7 -247 -7 -528 0 -280 0
-518 0 -527 -1 -17 -19 -18 -226 -18 -218 0 -225 -1 -225 -20 0 -19 7 -20 233
-20 l232 0 95 -95 95 -95 -93 -86 c-50 -47 -92 -94 -92 -104 0 -9 29 -43 65
-75 36 -31 65 -62 65 -68 0 -6 -27 -39 -61 -73 -56 -57 -61 -64 -54 -93 4 -20
15 -35 29 -41 23 -8 86 -74 86 -90 0 -5 -27 -39 -60 -77 -33 -37 -60 -74 -60
-81 0 -8 27 -42 60 -76 33 -35 60 -68 60 -74 0 -6 -27 -39 -60 -74 -33 -34
-60 -67 -60 -73 0 -6 27 -36 60 -68 33 -31 60 -62 60 -69 0 -7 -27 -43 -60
-80 l-60 -66 0 -409 0 -408 -125 -125 -125 -125 0 -262 0 -263 225 0 225 0 0
-440 0 -440 -3932 -2 c-2163 -2 -4049 -2 -4191 0 l-258 2 3 403 3 402 79 125
c43 69 91 139 107 155 16 17 29 38 29 47 0 9 20 44 43 79 24 35 55 89 69 119
14 31 41 78 60 105 20 28 100 154 178 280 78 127 153 246 166 265 l24 36 1
1157 0 1157 256 0 c240 0 255 -1 247 -17 -5 -10 -10 -112 -12 -226 l-3 -208
35 -35 c25 -25 43 -34 68 -34 l35 0 6 -167 c4 -93 10 -453 14 -800 l6 -633
169 0 168 0 1 328 c1 180 1 331 0 336 -1 6 0 20 3 33 6 21 11 22 108 25 l103
3 20 32 c16 27 26 32 50 30 l30 -2 5 -722 5 -722 65 -67 c83 -84 153 -139 262
-203 101 -59 136 -69 283 -77 172 -10 280 7 384 61 47 24 111 55 141 68 30 13
66 36 79 51 14 14 33 26 43 26 10 0 18 5 18 12 0 6 24 34 54 62 46 44 55 58
61 99 10 71 37 128 79 165 67 58 87 64 212 60 63 -2 114 0 114 4 0 4 24 14 53
22 30 9 62 25 73 37 10 12 36 32 57 45 l37 24 0 890 0 890 171 0 c160 0 171
-1 163 -17 -5 -10 -10 -252 -12 -538 -3 -599 -2 -605 63 -617 22 -4 75 -5 118
-2 l77 6 2 -133 c1 -74 2 -466 3 -872 1 -467 5 -741 11 -747 7 -7 505 -9 1415
-8 l1404 3 3 1548 2 1547 -60 0 -60 0 0 665 0 665 423 3 c232 1 438 3 457 5
19 1 72 -1 118 -5z m79 -727 l2 -628 -22 18 c-12 10 -73 70 -135 133 l-113
116 0 115 c0 63 -2 281 -5 483 -3 202 -3 374 0 383 5 12 28 14 138 12 l133 -3
2 -629z m-6397 -151 c0 -143 -3 -245 -9 -245 -5 0 -31 15 -57 33 l-49 34 -3
72 -3 71 -41 28 -41 27 -279 3 -278 3 0 110 0 109 379 0 380 0 1 -245z m-60
-386 c19 -11 41 -28 48 -37 9 -12 12 -108 12 -403 0 -212 -3 -407 -6 -433 -6
-43 -9 -47 -33 -44 -25 3 -26 6 -31 85 -7 112 -12 117 -143 123 l-102 5 -2
258 c-1 142 0 264 4 272 3 9 18 15 35 15 102 0 158 43 158 122 0 65 7 69 60
37z m6462 -1568 c0 -1026 -2 -1415 -10 -1423 -9 -9 -8 -16 1 -27 9 -12 9 -13
0 -7 -7 4 -13 2 -13 -3 0 -8 -78 -11 -240 -11 l-240 0 0 223 c0 204 2 225 20
255 20 32 40 42 40 20 0 -6 -7 -19 -16 -29 -13 -15 -17 -52 -21 -207 -6 -242
-14 -231 161 -234 128 -1 154 -1 172 1 7 0 19 17 29 37 14 29 16 58 13 145 -5
155 -4 154 -193 154 l-145 0 0 37 c0 34 9 44 130 155 l129 118 1 426 0 426 43
39 c23 22 59 52 80 68 21 16 37 37 37 48 0 11 -29 50 -65 87 -36 37 -65 72
-65 77 0 5 27 36 60 69 33 33 60 68 60 78 0 10 -27 43 -60 74 -33 30 -60 59
-60 64 0 5 27 37 60 71 44 46 60 70 60 90 0 16 -3 28 -8 28 -19 0 -112 93
-112 112 0 12 24 47 55 79 30 32 55 62 55 68 0 6 -27 42 -61 81 -33 39 -59 77
-57 86 3 13 149 145 156 139 1 -1 3 -638 4 -1414z m-160 436 c-23 -24 -42 -51
-42 -61 0 -10 29 -48 65 -85 36 -37 65 -71 65 -74 0 -4 -33 -38 -72 -76 l-73
-69 0 -420 c0 -231 -3 -424 -7 -428 -5 -4 -11 -4 -15 0 -5 4 -9 195 -11 424
l-2 417 70 77 c38 42 70 79 70 83 0 3 -29 37 -65 75 -36 38 -65 73 -65 78 0
14 110 115 117 108 4 -4 -12 -26 -35 -49z"/>
</g>
</svg>
