<?xml version="1.0" standalone="no"?>
<!DOCTYPE svg PUBLIC "-//W3C//DTD SVG 20010904//EN"
 "http://www.w3.org/TR/2001/REC-SVG-20010904/DTD/svg10.dtd">
<svg version="1.0" xmlns="http://www.w3.org/2000/svg"
 width="938.000000pt" height="490.000000pt" viewBox="0 0 938.000000 490.000000"
 preserveAspectRatio="xMidYMid meet">

<g transform="translate(0.000000,490.000000) scale(0.100000,-0.100000)"
fill="#000000" stroke="none">
<path d="M8571 4813 c1 -39 6 -77 11 -85 5 -8 6 20 2 67 -8 101 -15 111 -13
18z"/>
<path d="M8734 4843 c2 -16 4 -95 5 -176 0 -82 4 -146 9 -144 10 7 3 347 -8
347 -5 0 -7 -12 -6 -27z"/>
<path d="M8583 4650 c0 -36 2 -50 4 -32 2 17 2 47 0 65 -2 17 -4 3 -4 -33z"/>
<path d="M8581 4554 c0 -11 3 -14 6 -6 3 7 2 16 -1 19 -3 4 -6 -2 -5 -13z"/>
<path d="M8583 4496 c0 -19 5 -33 9 -30 11 7 10 51 -1 58 -5 3 -9 -10 -8 -28z"/>
<path d="M5680 4509 c-943 -3 -2607 -7 -3697 -8 -1755 -1 -1983 -3 -1983 -16
0 -13 131 -15 1120 -15 l1120 0 0 -240 0 -240 -321 -2 -322 -3 2 -102 2 -103
-223 0 -223 0 3 -940 2 -941 -237 -385 c-131 -212 -269 -435 -306 -497 l-68
-111 -2 -317 -2 -318 -23 -6 c-13 -3 -97 -5 -185 -5 -326 2 -337 1 -337 -15 0
-12 17 -15 90 -15 65 0 90 -3 90 -12 0 -10 2 -10 9 0 6 11 50 13 197 12 104
-1 1745 -1 3647 -1 l3457 1 0 85 0 85 88 1 c167 2 304 8 310 14 3 3 -86 5
-198 5 -112 0 -201 2 -199 4 2 2 102 6 222 8 177 4 217 3 217 -9 0 -8 12 -13
33 -13 18 0 38 -5 43 -10 15 -15 44 -2 44 19 0 9 -5 22 -12 29 -9 9 2 12 50
12 l62 0 -2 -67 c-1 -38 3 -77 9 -88 10 -16 11 -13 6 23 l-6 42 34 0 c43 0 63
27 49 65 l-10 25 91 0 90 0 43 -42 c24 -24 67 -76 96 -116 l53 -74 -7 -114
c-6 -111 -6 -114 13 -102 15 9 17 17 10 35 -11 29 -12 153 -1 153 4 0 31 -34
60 -75 30 -41 58 -75 63 -75 5 0 9 -12 9 -26 0 -14 4 -23 9 -20 5 4 10 48 10
99 1 78 4 125 10 147 0 3 3 82 6 175 3 94 7 195 10 225 3 30 7 93 10 140 15
269 22 364 37 490 3 25 3 25 -88 28 l-92 3 4 49 c2 28 -1 50 -6 50 -6 0 -9
-40 -9 -97 1 -54 4 -88 6 -75 2 12 9 22 14 22 5 0 9 8 7 18 -3 14 6 17 60 18
34 1 62 1 62 0 0 -7 -135 -111 -142 -109 -4 2 -8 -3 -9 -10 0 -6 -39 -44 -86
-83 l-86 -72 -490 -1 c-363 -1 -498 2 -523 11 l-34 12 3 1732 c2 1726 2 1733
-18 1736 -11 2 -792 0 -1735 -3z m-1840 -601 l0 -563 -500 0 c-492 0 -499 0
-431 17 97 24 166 61 232 127 186 186 185 480 -3 663 -188 184 -462 183 -649
-3 -269 -268 -123 -718 257 -793 l69 -14 -143 -1 c-131 -1 -143 -3 -140 -18 3
-16 16 -18 141 -14 112 3 137 1 137 -11 0 -9 -21 -17 -60 -25 -377 -71 -518
-516 -245 -771 150 -140 351 -170 534 -78 277 140 334 497 114 720 -57 58
-182 121 -260 131 -36 5 -53 12 -53 21 0 12 53 14 333 14 313 0 330 -1 299
-17 -80 -39 -139 -152 -129 -248 13 -124 117 -225 232 -225 79 0 167 57 208
134 30 58 31 174 0 231 -24 46 -65 87 -108 109 -29 15 -27 16 68 16 l97 0 -1
-597 c0 -513 -2 -593 -14 -561 -7 20 -21 48 -31 63 -22 34 -95 84 -134 91 -39
8 -38 17 6 33 85 31 154 131 154 226 -1 94 -56 179 -145 221 -62 29 -125 30
-185 3 -97 -44 -144 -117 -144 -224 0 -109 47 -181 149 -226 l50 -22 -31 -9
c-18 -4 -53 -23 -80 -40 -123 -84 -136 -258 -27 -364 131 -128 358 -78 418 92
14 39 14 38 14 -46 1 -102 -6 -112 -100 -164 -61 -34 -72 -36 -152 -36 -69 0
-94 -4 -124 -21 -77 -42 -95 -69 -133 -196 -11 -35 -26 -52 -88 -98 -78 -58
-199 -125 -227 -125 -8 0 -15 -4 -15 -9 0 -31 -245 -54 -339 -31 -28 6 -51 15
-51 19 0 4 -19 12 -43 18 -73 20 -166 90 -276 206 l-24 25 6 929 c3 510 6 929
6 931 1 2 19 -7 41 -19 22 -12 43 -20 46 -16 9 9 -25 47 -43 47 -7 0 -13 4
-13 9 0 5 -9 13 -21 16 -11 4 -18 9 -15 12 3 3 24 -6 46 -21 56 -37 79 -34 43
6 -9 11 -11 18 -5 18 27 0 9 27 -38 58 l-50 32 0 465 0 465 785 0 785 0 0
-562z m500 327 l-1 -235 -159 0 -160 0 1 -262 c0 -176 4 -275 12 -298 l12 -35
148 -3 147 -3 0 -29 0 -30 -235 0 -235 0 0 565 0 565 235 0 235 0 0 -235z
m3050 210 l0 -25 -115 0 -115 0 0 25 0 25 115 0 115 0 0 -25z m-2 -383 c-1
-180 2 -333 6 -340 4 -7 4 -12 -1 -12 -4 0 -7 -75 -5 -167 l3 -168 -105 107
-106 107 1 68 c0 37 -1 91 -2 118 -1 28 -4 177 -6 333 l-4 282 111 0 111 0 -3
-328z m-4426 149 c199 -76 311 -305 249 -509 -23 -78 -86 -170 -144 -215 -21
-16 -63 -40 -95 -55 -50 -24 -70 -27 -157 -27 -92 0 -105 3 -168 32 -215 102
-306 361 -200 571 33 65 116 153 173 182 105 54 235 62 342 21z m-722 -451 l0
-201 -45 31 c-45 31 -45 32 -45 89 0 56 -1 58 -39 79 -37 21 -51 22 -260 22
l-221 0 0 90 0 90 305 0 305 0 0 -200z m-646 -27 c-5 -10 -10 -91 -12 -181
l-3 -163 30 -29 c19 -19 40 -30 58 -30 l28 0 4 -243 c1 -133 5 -264 6 -292 2
-27 4 -209 4 -402 l1 -353 140 0 140 0 0 290 0 290 80 0 c67 0 83 3 100 20 11
11 20 25 20 30 0 6 11 10 25 10 l25 0 2 -583 3 -584 45 -47 c90 -96 273 -217
340 -226 19 -3 100 -5 180 -5 127 1 153 4 207 24 35 13 60 27 57 32 -5 8 9 13
29 10 4 0 7 3 7 9 0 5 7 10 15 10 23 0 76 29 94 52 9 10 25 20 36 22 11 2 20
8 20 14 0 6 19 27 43 47 23 20 42 44 42 54 0 40 32 121 59 148 58 58 60 58
166 58 55 0 102 2 105 5 7 8 93 35 107 33 7 0 10 3 7 9 -8 12 15 38 43 49 l23
9 0 720 0 720 116 0 c107 0 116 -1 109 -17 -10 -25 -24 -307 -24 -493 -1 -292
22 -410 86 -439 13 -6 60 -11 103 -11 l80 0 0 -700 0 -700 1140 0 1140 0 0
1240 0 1240 23 5 c12 2 40 6 62 7 32 3 43 9 62 37 13 19 23 45 23 57 l0 24
178 0 177 0 78 -78 77 -77 -75 -68 c-41 -38 -75 -74 -75 -82 0 -7 25 -37 55
-66 l56 -53 -52 -52 c-46 -46 -50 -55 -44 -83 4 -17 13 -31 20 -31 7 0 27 -16
44 -36 l32 -35 -51 -59 c-27 -32 -50 -65 -50 -73 0 -8 24 -38 53 -66 l52 -50
-52 -53 c-29 -30 -53 -59 -53 -65 0 -6 23 -34 52 -61 l52 -51 -52 -59 -52 -60
0 -329 0 -328 -100 -100 -100 -100 0 -212 0 -213 180 0 180 0 0 -355 0 -355
-1575 0 -1575 0 0 225 0 225 -1010 0 -1010 0 0 -40 0 -40 -445 0 -445 0 0
-185 0 -185 -340 0 -340 0 0 320 0 320 71 115 c39 63 80 120 90 126 11 5 17
14 14 19 -8 12 10 45 51 97 19 23 34 50 35 60 1 19 8 32 80 140 25 37 79 123
119 190 41 67 78 119 82 117 5 -3 8 2 8 12 0 16 37 84 52 94 4 3 8 427 9 943
l2 937 205 0 c191 0 204 -1 196 -17z m5544 -135 l3 -58 -171 0 -170 0 0 39 c0
34 3 38 20 34 23 -6 28 15 8 35 -10 10 21 12 147 10 l160 -3 3 -57z m-4930
-53 c20 -14 33 -25 28 -25 -10 0 -76 40 -76 46 0 9 12 3 48 -21z m5146 -199
c-8 -22 -23 -20 -18 2 3 11 -22 44 -81 102 -47 46 -85 89 -85 95 0 5 43 -34
95 -87 65 -66 93 -102 89 -112z m-5115 123 c3 -10 -2 -9 -15 3 -10 9 -31 21
-47 27 -15 6 -27 16 -27 22 0 14 83 -34 89 -52z m81 0 c17 -13 18 -17 5 -10
-33 17 -51 31 -40 31 6 0 21 -10 35 -21z m-111 -26 l31 -18 0 -357 0 -358 -25
0 c-24 0 -25 2 -25 65 0 92 -15 105 -120 105 l-80 0 0 219 0 219 55 7 c72 9
105 39 105 95 0 46 11 50 59 23z m5062 -177 l-54 -54 53 -61 c39 -45 50 -65
45 -78 -8 -17 -8 -16 -12 2 -3 11 -30 46 -61 78 l-57 58 65 59 c36 32 67 56
69 54 3 -3 -19 -29 -48 -58z m121 -1075 c1 -843 -2 -1135 -10 -1143 -7 -7 -12
-20 -12 -30 0 -16 -10 -18 -97 -17 -87 2 -91 3 -39 8 84 9 96 27 96 148 0 87
-2 96 -25 119 -25 24 -29 25 -145 22 l-120 -3 0 31 c0 28 14 44 104 125 l105
94 0 347 1 347 65 53 c36 29 65 59 65 66 0 8 -26 40 -57 73 l-57 60 52 52 c29
29 52 58 52 65 0 8 -23 35 -52 61 l-52 48 52 55 c29 30 52 63 52 72 0 10 -22
38 -50 63 -27 25 -50 50 -50 55 0 6 20 33 45 59 25 26 45 53 45 60 0 6 -23 38
-52 71 l-52 60 65 58 c35 32 65 57 67 55 1 -1 3 -512 4 -1134z m-4397 1001
c326 -153 324 -580 -3 -735 -61 -29 -75 -32 -167 -32 -92 0 -106 3 -168 32
-263 125 -327 442 -130 645 122 125 314 162 468 90z m4289 -144 c-4 -7 -18
-27 -31 -44 -13 -17 -23 -36 -23 -43 0 -7 25 -35 55 -63 47 -43 53 -52 41 -64
-19 -19 -26 -18 -26 4 0 10 -22 40 -50 67 -27 27 -50 54 -50 59 0 9 79 96 88
96 2 0 0 -6 -4 -12z m-23 -284 c-17 -19 -31 -40 -31 -46 0 -6 23 -32 52 -58
29 -26 49 -51 45 -57 -7 -11 -127 104 -127 121 0 4 19 30 43 58 30 36 43 46
45 34 2 -9 -10 -32 -27 -52z m6 -222 c-20 -21 -37 -44 -37 -51 0 -7 25 -39 55
-70 48 -50 53 -60 40 -71 -12 -10 -15 -10 -15 5 0 9 -26 43 -57 76 l-57 60 44
44 c24 25 49 45 54 45 6 0 -7 -17 -27 -38z m33 -209 c0 -4 -18 -26 -40 -48
l-41 -42 1 -341 c0 -227 -3 -342 -10 -342 -5 0 -10 15 -10 33 -1 17 -3 168 -6
334 l-5 303 47 55 c44 51 64 66 64 48z m-177 -858 c-37 -34 -70 -58 -72 -53
-2 6 28 41 65 79 50 50 70 65 72 53 3 -10 -23 -40 -65 -79z m-83 -75 c0 -5 -7
-13 -15 -17 -12 -7 -16 -42 -21 -169 l-7 -160 28 -22 c23 -18 25 -23 11 -28
-9 -3 -23 -3 -32 0 -14 5 -15 29 -12 190 2 136 6 187 17 199 15 19 31 22 31 7z
m1769 -267 c-4 -60 -10 -166 -14 -238 -3 -71 -8 -150 -10 -175 -2 -25 -7 -94
-10 -155 -4 -60 -8 -130 -11 -155 -2 -25 -6 -99 -9 -164 -3 -66 -6 -121 -8
-123 -6 -5 -117 153 -117 165 0 6 -6 15 -14 19 -8 4 -44 50 -81 101 -36 50
-67 92 -68 93 -41 10 -159 23 -163 17 -3 -4 -187 -8 -410 -8 l-404 0 0 231 0
231 228 -6 c489 -15 506 -16 518 -31 14 -19 25 -19 18 0 -4 10 0 15 12 15 25
0 37 -10 52 -40 l12 -25 -3 27 c-5 32 3 36 66 30 30 -3 47 -9 47 -17 0 -8 5
-17 11 -21 7 -4 10 4 7 22 -2 20 3 31 17 39 30 15 99 68 108 82 4 7 14 13 22
13 8 0 19 8 24 18 10 16 10 16 11 0 0 -9 5 -20 11 -24 8 -5 10 1 7 19 -3 14
-2 30 1 34 6 9 150 133 154 133 1 0 -1 -48 -4 -107z m-462 -169 c-3 -3 -12 -4
-19 -1 -8 3 -5 6 6 6 11 1 17 -2 13 -5z m81 -1 c-10 -2 -28 -2 -40 0 -13 2 -5
4 17 4 22 1 32 -1 23 -4z m-4308 -493 l0 -190 -1405 0 -1405 0 0 150 0 150
424 0 c233 0 431 3 440 6 8 3 18 21 22 40 l6 34 959 0 959 0 0 -190z m3889
-15 c-11 -10 -519 -15 -519 -5 0 6 89 10 262 10 144 0 259 -2 257 -5z m217
-31 c8 -31 -6 -47 -37 -42 -19 2 -24 10 -26 36 -3 29 0 32 27 32 23 0 31 -5
36 -26z m-246 6 c0 -5 -8 -10 -17 -10 -15 0 -16 2 -3 10 19 12 20 12 20 0z"/>
<path d="M3465 4326 c-114 -54 -168 -171 -133 -288 16 -56 78 -121 138 -147
57 -25 64 -46 18 -56 -48 -11 -131 -99 -147 -158 -57 -203 147 -382 334 -293
187 88 193 344 11 438 -22 11 -66 23 -98 25 -61 6 -81 23 -27 23 62 0 113 23
164 75 78 77 95 166 51 261 -57 123 -193 176 -311 120z"/>
<path d="M2725 2276 c-230 -56 -386 -289 -347 -518 42 -251 274 -419 524 -380
245 38 419 275 381 521 -41 261 -304 439 -558 377z m273 -76 c171 -79 271
-272 233 -450 -27 -127 -115 -235 -235 -292 -65 -30 -79 -33 -166 -33 -87 0
-101 3 -166 33 -92 43 -162 114 -206 207 -30 64 -33 78 -33 165 0 86 3 101 32
162 55 116 164 209 279 238 73 18 186 5 262 -30z"/>
<path d="M8643 975 c0 -33 2 -45 4 -27 2 18 2 45 0 60 -2 15 -4 0 -4 -33z"/>
<path d="M8630 890 c0 -5 5 -10 10 -10 6 0 10 5 10 10 0 6 -4 10 -10 10 -5 0
-10 -4 -10 -10z"/>
<path d="M8633 835 c0 -22 2 -30 4 -17 2 12 2 30 0 40 -3 9 -5 -1 -4 -23z"/>
<path d="M7941 794 c0 -11 3 -14 6 -6 3 7 2 16 -1 19 -3 4 -6 -2 -5 -13z"/>
<path d="M8630 785 c-1 -5 -1 -20 0 -32 1 -13 -2 -28 -6 -34 -3 -6 -7 -99 -9
-208 -1 -109 2 -183 6 -167 4 15 9 94 10 175 2 80 5 160 9 176 5 27 -4 114
-10 90z m-3 -107 c-3 -8 -6 -5 -6 6 -1 11 2 17 5 13 3 -3 4 -12 1 -19z"/>
<path d="M9374 4330 c0 -74 1 -105 3 -67 2 37 2 97 0 135 -2 37 -3 6 -3 -68z"/>
<path d="M8752 4330 c0 -19 2 -27 5 -17 2 9 2 25 0 35 -3 9 -5 1 -5 -18z"/>
<path d="M8590 4272 c0 -40 4 -72 9 -72 8 0 3 130 -5 139 -2 2 -4 -28 -4 -67z"/>
<path d="M8751 4258 c0 -18 4 -55 9 -83 7 -47 7 -45 9 33 0 49 -3 82 -9 82 -5
0 -10 -15 -9 -32z"/>
<path d="M8590 4176 c0 -8 5 -18 10 -21 6 -3 10 3 10 14 0 12 -4 21 -10 21 -5
0 -10 -6 -10 -14z"/>
<path d="M9372 4160 c0 -19 2 -27 5 -17 2 9 2 25 0 35 -3 9 -5 1 -5 -18z"/>
<path d="M8603 4095 c0 -27 2 -38 4 -22 2 15 2 37 0 50 -2 12 -4 0 -4 -28z"/>
<path d="M8764 4010 c3 -63 8 -178 12 -255 4 -77 11 -147 15 -155 7 -11 8 -8
5 10 -3 14 -8 104 -11 201 -8 212 -14 301 -21 308 -4 4 -4 -46 0 -109z"/>
<path d="M8058 4033 c12 -2 30 -2 40 0 9 3 -1 5 -23 4 -22 0 -30 -2 -17 -4z"/>
<path d="M8600 3998 c0 -24 5 -50 10 -58 7 -11 10 2 10 43 0 31 -4 57 -10 57
-5 0 -10 -19 -10 -42z"/>
<path d="M8059 3999 c-15 -10 -14 -10 19 -14 12 -1 22 1 22 5 0 13 -26 19 -41
9z"/>
<path d="M8047 3963 c-10 -9 -8 -41 2 -47 5 -3 23 -3 40 0 24 5 31 12 31 30 0
17 -6 24 -17 23 -11 0 -13 -3 -5 -6 22 -9 13 -33 -13 -33 -26 0 -35 24 -12 33
8 4 6 6 -4 6 -9 1 -19 -2 -22 -6z"/>
<path d="M8070 3890 l-35 -7 43 -2 c27 0 41 3 37 9 -3 6 -7 9 -8 9 -1 -1 -18
-5 -37 -9z"/>
<path d="M8610 3844 c0 -14 4 -23 9 -20 5 3 7 15 4 26 -7 28 -13 25 -13 -6z"/>
<path d="M8053 3830 c2 -21 7 -25 32 -25 25 0 30 4 32 25 3 25 3 25 -7 3 -5
-13 -16 -23 -25 -23 -9 0 -20 10 -25 23 -10 22 -10 22 -7 -3z"/>
<path d="M8616 3758 c9 -59 14 -60 14 -5 0 26 -5 47 -10 47 -6 0 -8 -16 -4
-42z"/>
<path d="M8070 3775 c-14 -17 -7 -31 17 -37 14 -4 18 1 18 24 0 30 -15 37 -35
13z m20 -15 c0 -5 -2 -10 -4 -10 -3 0 -8 5 -11 10 -3 6 -1 10 4 10 6 0 11 -4
11 -10z"/>
<path d="M8068 3703 c12 -2 30 -2 40 0 9 3 -1 5 -23 4 -22 0 -30 -2 -17 -4z"/>
<path d="M8110 3651 c0 -14 -8 -21 -27 -24 -26 -4 -26 -4 5 -6 28 -1 32 2 32
24 0 14 -2 25 -5 25 -3 0 -5 -9 -5 -19z"/>
<path d="M8621 3614 c0 -11 3 -14 6 -6 3 7 2 16 -1 19 -3 4 -6 -2 -5 -13z"/>
<path d="M8057 3593 c-4 -3 -7 -15 -7 -25 0 -14 7 -18 38 -17 20 1 29 3 20 6
-10 2 -18 13 -18 24 0 18 -20 26 -33 12z m23 -19 c0 -8 -4 -12 -10 -9 -5 3
-10 10 -10 16 0 5 5 9 10 9 6 0 10 -7 10 -16z"/>
<path d="M8791 3504 c0 -43 4 -99 9 -124 5 -28 6 0 2 75 -5 137 -12 166 -11
49z"/>
<path d="M8633 3525 c0 -22 2 -30 4 -17 2 12 2 30 0 40 -3 9 -5 -1 -4 -23z"/>
<path d="M8060 3534 c0 -3 7 -12 15 -20 13 -14 17 -14 30 0 22 21 19 26 -15
26 -16 0 -30 -3 -30 -6z"/>
<path d="M8073 3483 c9 -2 25 -2 35 0 9 3 1 5 -18 5 -19 0 -27 -2 -17 -5z"/>
<path d="M8631 3464 c0 -11 3 -14 6 -6 3 7 2 16 -1 19 -3 4 -6 -2 -5 -13z"/>
<path d="M8085 3458 c-30 -16 -31 -18 -15 -28 25 -16 37 -11 42 15 6 28 2 30
-27 13z"/>
<path d="M8631 3414 c0 -11 3 -14 6 -6 3 7 2 16 -1 19 -3 4 -6 -2 -5 -13z"/>
<path d="M0 3370 c0 -8 5 -22 10 -30 9 -13 10 -13 10 0 0 8 -5 22 -10 30 -9
13 -10 13 -10 0z"/>
<path d="M8080 3315 c-15 -18 -7 -29 30 -40 22 -7 23 -6 12 8 -8 9 -20 13 -28
10 -8 -3 -14 0 -14 6 0 6 6 11 14 11 8 0 18 5 21 10 10 16 -21 11 -35 -5z"/>
<path d="M8802 3285 c0 -27 3 -75 8 -105 l7 -55 1 45 c0 25 -4 72 -8 105 l-7
60 -1 -50z"/>
<path d="M8642 3250 l-2 -55 -45 3 c-31 3 -54 -1 -71 -13 -19 -12 -29 -14 -37
-6 -14 14 -53 14 -80 0 -66 -36 -76 -102 -23 -155 19 -19 41 -34 49 -34 24 0
71 20 79 33 5 9 10 9 20 -1 19 -19 92 -15 110 6 22 25 30 52 15 53 -7 0 -3 4
8 9 20 8 20 9 -1 9 -18 1 -20 6 -16 29 4 19 7 22 10 10 2 -10 7 -18 12 -18 10
0 3 27 -11 45 -4 6 -10 40 -12 75 l-3 65 -2 -55z m-12 -71 c11 -7 5 -8 -21 -3
-22 3 -46 1 -59 -6 -12 -6 -24 -9 -27 -6 -8 8 37 25 67 25 14 0 32 -4 40 -10z
m-135 -21 c6 -5 -3 -4 -18 1 -57 22 -109 -30 -93 -92 12 -51 69 -59 114 -16
31 28 39 17 11 -15 -43 -50 -123 -29 -140 37 -18 71 75 134 126 85z m140 -18
c0 -13 -80 -48 -89 -39 -3 3 -7 16 -8 29 -2 20 3 25 27 30 36 8 70 -2 70 -20z
m-147 -11 c2 -11 -11 -21 -40 -32 -24 -10 -47 -17 -51 -17 -13 0 -7 39 9 55
21 20 78 16 82 -6z m38 -36 c-10 -10 -19 5 -10 18 6 11 8 11 12 0 2 -7 1 -15
-2 -18z m124 -43 c0 -17 -52 -32 -88 -25 -18 3 -30 10 -27 15 3 5 15 6 28 1
15 -6 33 -4 52 4 17 7 31 14 33 14 1 1 2 -4 2 -9z"/>
<path d="M8064 3245 c-11 -27 4 -44 36 -43 21 1 28 4 21 11 -8 8 -6 16 6 29
18 20 4 25 -15 6 -9 -9 -12 -9 -12 0 0 17 -30 15 -36 -3z m22 -22 c-10 -10
-19 5 -10 18 6 11 8 11 12 0 2 -7 1 -15 -2 -18z"/>
<path d="M8098 3183 c19 -3 32 -10 32 -19 0 -8 5 -14 11 -14 6 0 9 8 7 18 -2
12 -14 17 -43 18 -32 1 -34 1 -7 -3z"/>
<path d="M8070 3140 c0 -5 9 -10 19 -10 11 0 23 5 26 10 4 6 -5 10 -19 10 -14
0 -26 -4 -26 -10z"/>
<path d="M8811 3085 c0 -22 3 -33 6 -25 3 8 10 18 14 21 5 3 2 14 -6 25 -13
18 -14 16 -14 -21z"/>
<path d="M8070 3085 c0 -12 3 -16 8 -8 4 6 21 13 37 15 29 3 29 4 -7 9 -33 4
-38 2 -38 -16z"/>
<path d="M8080 3050 c0 -5 14 -10 30 -10 42 0 40 -28 -2 -33 l-33 -4 35 1 c59
2 52 55 -7 56 -13 0 -23 -4 -23 -10z"/>
<path d="M8821 2974 c0 -11 3 -14 6 -6 3 7 2 16 -1 19 -3 4 -6 -2 -5 -13z"/>
<path d="M8068 2953 c-6 -21 -3 -23 35 -22 31 0 37 2 22 8 -11 5 -25 6 -32 4
-6 -3 -13 4 -15 14 -3 15 -5 15 -10 -4z"/>
<path d="M8652 2925 c0 -16 2 -22 5 -12 2 9 2 23 0 30 -3 6 -5 -1 -5 -18z"/>
<path d="M8821 2874 c0 -11 3 -14 6 -6 3 7 2 16 -1 19 -3 4 -6 -2 -5 -13z"/>
<path d="M8099 2843 l24 -5 -29 -24 -29 -23 40 -2 40 -2 -35 -6 c-29 -5 -36
-11 -38 -33 -3 -26 -1 -28 37 -28 46 0 55 9 46 50 -5 24 -12 30 -33 30 l-27 1
23 18 c30 26 28 31 -10 30 -27 -1 -28 -3 -9 -6z m44 -93 c4 -17 0 -20 -23 -20
-30 0 -45 13 -35 30 11 18 52 11 58 -10z"/>
<path d="M8650 2809 c0 -5 5 -7 10 -4 6 3 10 8 10 11 0 2 -4 4 -10 4 -5 0 -10
-5 -10 -11z"/>
<path d="M8653 2775 c0 -8 4 -12 9 -9 5 3 6 10 3 15 -9 13 -12 11 -12 -6z"/>
<path d="M8832 2740 c0 -14 2 -19 5 -12 2 6 2 18 0 25 -3 6 -5 1 -5 -13z"/>
<path d="M8658 2610 c2 -77 6 -140 10 -140 6 0 7 114 2 268 0 6 -3 12 -7 12
-5 0 -7 -63 -5 -140z"/>
<path d="M8070 2692 c0 -4 18 -8 40 -8 22 -1 40 2 40 7 0 5 -18 9 -40 9 -22 0
-40 -3 -40 -8z"/>
<path d="M8077 2646 c-13 -32 10 -43 36 -18 28 27 34 27 40 5 4 -17 5 -17 6 0
1 25 -26 32 -48 12 -18 -16 -19 -15 -23 2 -3 17 -4 17 -11 -1z"/>
<path d="M8831 2634 c0 -11 3 -14 6 -6 3 7 2 16 -1 19 -3 4 -6 -2 -5 -13z"/>
<path d="M8072 2569 c2 -20 10 -24 46 -27 40 -3 42 -2 41 25 -2 24 -2 24 -6 6
-5 -26 -13 -29 -31 -11 -9 9 -12 9 -12 0 0 -7 -4 -12 -10 -12 -5 0 -10 6 -10
14 0 8 -5 18 -11 22 -7 4 -9 -2 -7 -17z"/>
<path d="M8831 2536 c-1 -26 2 -37 9 -30 6 6 6 21 1 39 -9 30 -9 30 -10 -9z"/>
<path d="M8083 2500 c1 -20 8 -25 30 -26 30 -1 52 18 44 38 -4 9 -6 8 -6 -3
-1 -10 -12 -19 -27 -22 -19 -3 -28 1 -35 17 -8 20 -9 19 -6 -4z"/>
<path d="M8660 2450 c0 -5 5 -10 10 -10 6 0 10 5 10 10 0 6 -4 10 -10 10 -5 0
-10 -4 -10 -10z"/>
<path d="M8670 2085 c-2 -192 -4 -367 -6 -387 -1 -21 2 -38 7 -38 8 0 15 177
9 219 -1 8 3 17 10 21 8 5 8 14 0 34 -14 37 -13 346 1 346 5 0 7 5 4 10 -4 6
-10 41 -15 78 -5 45 -8 -50 -10 -283z"/>
<path d="M8843 2375 c0 -33 2 -45 4 -27 2 18 2 45 0 60 -2 15 -4 0 -4 -33z"/>
<path d="M8124 2375 c3 -8 1 -15 -4 -15 -6 0 -10 -4 -10 -10 0 -5 8 -10 18
-10 12 0 17 8 17 25 0 14 -6 25 -14 25 -8 0 -11 -6 -7 -15z"/>
<path d="M8090 2369 c0 -5 5 -7 10 -4 6 3 10 8 10 11 0 2 -4 4 -10 4 -5 0 -10
-5 -10 -11z"/>
<path d="M8082 2288 c2 -13 6 -22 11 -20 4 1 23 2 42 2 30 0 35 3 34 23 -1 16
-3 17 -6 5 -3 -13 -13 -17 -36 -15 -18 2 -31 9 -29 15 1 7 -3 12 -9 12 -6 0
-9 -10 -7 -22z"/>
<path d="M8840 2140 c0 -95 3 -170 7 -166 8 8 6 326 -2 335 -3 2 -5 -74 -5
-169z"/>
<path d="M8087 2243 c-4 -3 -7 -15 -7 -25 0 -14 8 -18 36 -18 19 0 33 4 29 9
-3 5 -1 12 5 16 5 3 10 12 10 18 0 7 -4 6 -10 -3 -7 -12 -12 -12 -22 -2 -13
13 -31 16 -41 5z m33 -18 c0 -8 -4 -15 -10 -15 -5 0 -10 7 -10 15 0 8 5 15 10
15 6 0 10 -7 10 -15z"/>
<path d="M8132 2155 c1 -14 8 -25 14 -25 7 0 9 10 6 25 -2 14 -8 25 -13 25 -5
0 -8 -11 -7 -25z"/>
<path d="M8095 2150 c3 -5 8 -10 11 -10 2 0 4 5 4 10 0 6 -5 10 -11 10 -5 0
-7 -4 -4 -10z"/>
<path d="M8840 1906 c0 -9 5 -16 10 -16 6 0 10 4 10 9 0 6 -4 13 -10 16 -5 3
-10 -1 -10 -9z"/>
<path d="M8844 1730 c0 -63 1 -89 3 -57 2 31 2 83 0 115 -2 31 -3 5 -3 -58z"/>
<path d="M8830 1601 c0 -6 5 -13 10 -16 6 -3 10 1 10 9 0 9 -4 16 -10 16 -5 0
-10 -4 -10 -9z"/>
<path d="M8660 1579 c0 -5 5 -7 10 -4 6 3 10 8 10 11 0 2 -4 4 -10 4 -5 0 -10
-5 -10 -11z"/>
<path d="M8663 1490 c0 -41 2 -58 4 -37 2 20 2 54 0 75 -2 20 -4 3 -4 -38z"/>
<path d="M8837 1543 c-4 -3 -6 -56 -5 -117 l1 -111 7 115 c6 124 6 123 -3 113z"/>
<path d="M8254 1269 c-22 -11 -54 -68 -54 -95 0 -51 64 -103 113 -90 29 7 77
44 77 58 0 7 -10 2 -22 -9 -42 -38 -67 -46 -99 -32 -29 11 -67 65 -55 77 3 3
6 2 6 -3 0 -4 10 7 23 26 24 37 67 50 93 28 20 -16 18 -26 -8 -34 -13 -4 -25
-8 -28 -10 -3 -1 -20 -6 -37 -10 -53 -12 -38 -49 25 -61 25 -5 36 -1 57 21 22
21 26 32 21 57 -3 17 -11 37 -17 45 -16 19 -79 16 -102 -4 -15 -14 -19 -14
-15 -3 7 23 59 38 96 28 25 -7 37 -18 48 -44 8 -19 12 -40 8 -47 -5 -8 -4 -9
4 -2 13 13 5 54 -16 82 -20 26 -86 38 -118 22z m-27 -71 c-3 -8 -6 -5 -6 6 -1
11 2 17 5 13 3 -3 4 -12 1 -19z"/>
<path d="M8245 380 c-3 -5 -1 -10 4 -10 6 0 11 5 11 10 0 6 -2 10 -4 10 -3 0
-8 -4 -11 -10z"/>
<path d="M9373 115 c0 -38 2 -53 4 -32 2 20 2 52 0 70 -2 17 -4 1 -4 -38z"/>
<path d="M9372 20 c0 -14 2 -19 5 -12 2 6 2 18 0 25 -3 6 -5 1 -5 -13z"/>
</g>
</svg>
